/* XPM */
static char *_1db93598bbd4cbdf89e9936fb390dfcKjGPB0MtcIO8tcxe[] = {
/* columns rows colors chars-per-pixel */
"128 128 8 1 ",
"  c #686868",
". c #747474",
"X c gray50",
"o c #77CEFB",
"O c #5DECF5",
"+ c gray56",
"@ c #C7E7FE",
"# c white",
/* pixels */
"XXXXXXX................................XXXXXXXX++++++++++++++++        ++++++++XXXXXXXX................................XXXXXXXXX",
"XXXXXXX................................XXXXXXXX++++++++++++++++        ++++++++XXXXXXXX................................XXXXXXXXX",
"XXXXXXX................................XXXXXXXX++++++++++++++++        ++++++++XXXXXXXX................................XXXXXXXXX",
"XXXXXXX................................XXXXXXXX++++++++++++++++        ++++++++XXXXXXXX................................XXXXXXXXX",
"XXXXXXX................................XXXXXXXX++++++++++++++++        ++++++++XXXXXXXX................................XXXXXXXXX",
"XXXXXXX................................XXXXXXXX++++++++++++++++        ++++++++XXXXXXXX................................XXXXXXXXX",
"XXXXXXX................................XXXXXXXX++++++++++++++++        ++++++++XXXXXXXX................................XXXXXXXXX",
"XXXXXXX................................XXXXXXXX++++++++++++++++        ++++++++XXXXXXXX................................XXXXXXXXX",
"XXXXXXXXXXXXXXX++++++++++++++++++++++++++++++++++++++++++++++++........++++++++++++++++++++++++        XXXXXXXXXXXXXXXX........X",
"XXXXXXXXXXXXXXX++++++++++++++++++++++++++++++++++++++++++++++++........++++++++++++++++++++++++        XXXXXXXXXXXXXXXX........X",
"XXXXXXXXXXXXXXX++++++++++++++++++++++++++++++++++++++++++++++++........++++++++++++++++++++++++        XXXXXXXXXXXXXXXX........X",
"XXXXXXXXXXXXXXX++++++++++++++++++++++++++++++++++++++++++++++++........++++++++++++++++++++++++        XXXXXXXXXXXXXXXX........X",
"XXXXXXXXXXXXXXX++++++++++++++++++++++++++++++++++++++++++++++++........++++++++++++++++++++++++        XXXXXXXXXXXXXXXX........X",
"XXXXXXXXXXXXXXX++++++++++++++++++++++++++++++++++++++++++++++++........++++++++++++++++++++++++        XXXXXXXXXXXXXXXX........X",
"XXXXXXXXXXXXXXX++++++++++++++++++++++++++++++++++++++++++++++++........++++++++++++++++++++++++        XXXXXXXXXXXXXXXX........X",
"XXXXXXXXXXXXXXX++++++++++++++++++++++++++++++++++++++++++++++++........++++++++++++++++++++++++        XXXXXXXXXXXXXXXX........X",
"XXXXXXX        ................oooooooo........................++++++++........XXXXXXXXXXXXXXXX@@@@@@@@ooooooooXXXXXXXXXXXXXXXXX",
"XXXXXXX        ................oooooooo........................++++++++........XXXXXXXXXXXXXXXX@@@@@@@@ooooooooXXXXXXXXXXXXXXXXX",
"XXXXXXX        ................oooooooo........................++++++++........XXXXXXXXXXXXXXXX@@@@@@@@ooooooooXXXXXXXXXXXXXXXXX",
"XXXXXXX        ................oooooooo........................++++++++........XXXXXXXXXXXXXXXX@@@@@@@@ooooooooXXXXXXXXXXXXXXXXX",
"XXXXXXX        ................oooooooo........................++++++++........XXXXXXXXXXXXXXXX@@@@@@@@ooooooooXXXXXXXXXXXXXXXXX",
"XXXXXXX        ................oooooooo........................++++++++........XXXXXXXXXXXXXXXX@@@@@@@@ooooooooXXXXXXXXXXXXXXXXX",
"XXXXXXX        ................oooooooo........................++++++++........XXXXXXXXXXXXXXXX@@@@@@@@ooooooooXXXXXXXXXXXXXXXXX",
"XXXXXXX        ................oooooooo........................++++++++........XXXXXXXXXXXXXXXX@@@@@@@@ooooooooXXXXXXXXXXXXXXXXX",
"XXXXXXX++++++++XXXXXXXXXXXXXXXXXXXXXXXX        XXXXXXXX@@@@@@@@OOOOOOOOXXXXXXXX........................................XXXXXXXXX",
"XXXXXXX++++++++XXXXXXXXXXXXXXXXXXXXXXXX        XXXXXXXX@@@@@@@@OOOOOOOOXXXXXXXX........................................XXXXXXXXX",
"XXXXXXX++++++++XXXXXXXXXXXXXXXXXXXXXXXX        XXXXXXXX@@@@@@@@OOOOOOOOXXXXXXXX........................................XXXXXXXXX",
"XXXXXXX++++++++XXXXXXXXXXXXXXXXXXXXXXXX        XXXXXXXX@@@@@@@@OOOOOOOOXXXXXXXX........................................XXXXXXXXX",
"XXXXXXX++++++++XXXXXXXXXXXXXXXXXXXXXXXX        XXXXXXXX@@@@@@@@OOOOOOOOXXXXXXXX........................................XXXXXXXXX",
"XXXXXXX++++++++XXXXXXXXXXXXXXXXXXXXXXXX        XXXXXXXX@@@@@@@@OOOOOOOOXXXXXXXX........................................XXXXXXXXX",
"XXXXXXX++++++++XXXXXXXXXXXXXXXXXXXXXXXX        XXXXXXXX@@@@@@@@OOOOOOOOXXXXXXXX........................................XXXXXXXXX",
"XXXXXXX++++++++XXXXXXXXXXXXXXXXXXXXXXXX        XXXXXXXX@@@@@@@@OOOOOOOOXXXXXXXX........................................XXXXXXXXX",
"XXXXXXX++++++++++++++++........................................................++++++++++++++++++++++++++++++++++++++++        X",
"XXXXXXX++++++++++++++++........................................................++++++++++++++++++++++++++++++++++++++++        X",
"XXXXXXX++++++++++++++++........................................................++++++++++++++++++++++++++++++++++++++++        X",
"XXXXXXX++++++++++++++++........................................................++++++++++++++++++++++++++++++++++++++++        X",
"XXXXXXX++++++++++++++++........................................................++++++++++++++++++++++++++++++++++++++++        X",
"XXXXXXX++++++++++++++++........................................................++++++++++++++++++++++++++++++++++++++++        X",
"XXXXXXX++++++++++++++++........................................................++++++++++++++++++++++++++++++++++++++++        X",
"XXXXXXX++++++++++++++++........................................................++++++++++++++++++++++++++++++++++++++++        X",
"...............XXXXXXXXXXXXXXXXXXXXXXXX########@@@@@@@@........XXXXXXXX        ########@@@@@@@@................        XXXXXXXX.",
"...............XXXXXXXXXXXXXXXXXXXXXXXX########@@@@@@@@........XXXXXXXX        ########@@@@@@@@................        XXXXXXXX.",
"...............XXXXXXXXXXXXXXXXXXXXXXXX########@@@@@@@@........XXXXXXXX        ########@@@@@@@@................        XXXXXXXX.",
"...............XXXXXXXXXXXXXXXXXXXXXXXX########@@@@@@@@........XXXXXXXX        ########@@@@@@@@................        XXXXXXXX.",
"...............XXXXXXXXXXXXXXXXXXXXXXXX########@@@@@@@@........XXXXXXXX        ########@@@@@@@@................        XXXXXXXX.",
"...............XXXXXXXXXXXXXXXXXXXXXXXX########@@@@@@@@........XXXXXXXX        ########@@@@@@@@................        XXXXXXXX.",
"...............XXXXXXXXXXXXXXXXXXXXXXXX########@@@@@@@@........XXXXXXXX        ########@@@@@@@@................        XXXXXXXX.",
"...............XXXXXXXXXXXXXXXXXXXXXXXX########@@@@@@@@........XXXXXXXX        ########@@@@@@@@................        XXXXXXXX.",
"+++++++++++++++XXXXXXXX########@@@@@@@@ooooooooooooooooOOOOOOOOXXXXXXXXXXXXXXXXooooooooOOOOOOOO++++++++++++++++++++++++        +",
"+++++++++++++++XXXXXXXX########@@@@@@@@ooooooooooooooooOOOOOOOOXXXXXXXXXXXXXXXXooooooooOOOOOOOO++++++++++++++++++++++++        +",
"+++++++++++++++XXXXXXXX########@@@@@@@@ooooooooooooooooOOOOOOOOXXXXXXXXXXXXXXXXooooooooOOOOOOOO++++++++++++++++++++++++        +",
"+++++++++++++++XXXXXXXX########@@@@@@@@ooooooooooooooooOOOOOOOOXXXXXXXXXXXXXXXXooooooooOOOOOOOO++++++++++++++++++++++++        +",
"+++++++++++++++XXXXXXXX########@@@@@@@@ooooooooooooooooOOOOOOOOXXXXXXXXXXXXXXXXooooooooOOOOOOOO++++++++++++++++++++++++        +",
"+++++++++++++++XXXXXXXX########@@@@@@@@ooooooooooooooooOOOOOOOOXXXXXXXXXXXXXXXXooooooooOOOOOOOO++++++++++++++++++++++++        +",
"+++++++++++++++XXXXXXXX########@@@@@@@@ooooooooooooooooOOOOOOOOXXXXXXXXXXXXXXXXooooooooOOOOOOOO++++++++++++++++++++++++        +",
"+++++++++++++++XXXXXXXX########@@@@@@@@ooooooooooooooooOOOOOOOOXXXXXXXXXXXXXXXXooooooooOOOOOOOO++++++++++++++++++++++++        +",
"XXXXXXXXXXXXXXXXXXXXXXX................................................        ................................XXXXXXXXXXXXXXXXX",
"XXXXXXXXXXXXXXXXXXXXXXX................................................        ................................XXXXXXXXXXXXXXXXX",
"XXXXXXXXXXXXXXXXXXXXXXX................................................        ................................XXXXXXXXXXXXXXXXX",
"XXXXXXXXXXXXXXXXXXXXXXX................................................        ................................XXXXXXXXXXXXXXXXX",
"XXXXXXXXXXXXXXXXXXXXXXX................................................        ................................XXXXXXXXXXXXXXXXX",
"XXXXXXXXXXXXXXXXXXXXXXX................................................        ................................XXXXXXXXXXXXXXXXX",
"XXXXXXXXXXXXXXXXXXXXXXX................................................        ................................XXXXXXXXXXXXXXXXX",
"XXXXXXXXXXXXXXXXXXXXXXX................................................        ................................XXXXXXXXXXXXXXXXX",
"XXXXXXX@@@@@@@@oooooooo        ++++++++........XXXXXXXXXXXXXXXX########@@@@@@@@++++++++++++++++++++++++++++++++++++++++++++++++X",
"XXXXXXX@@@@@@@@oooooooo        ++++++++........XXXXXXXXXXXXXXXX########@@@@@@@@++++++++++++++++++++++++++++++++++++++++++++++++X",
"XXXXXXX@@@@@@@@oooooooo        ++++++++........XXXXXXXXXXXXXXXX########@@@@@@@@++++++++++++++++++++++++++++++++++++++++++++++++X",
"XXXXXXX@@@@@@@@oooooooo        ++++++++........XXXXXXXXXXXXXXXX########@@@@@@@@++++++++++++++++++++++++++++++++++++++++++++++++X",
"XXXXXXX@@@@@@@@oooooooo        ++++++++........XXXXXXXXXXXXXXXX########@@@@@@@@++++++++++++++++++++++++++++++++++++++++++++++++X",
"XXXXXXX@@@@@@@@oooooooo        ++++++++........XXXXXXXXXXXXXXXX########@@@@@@@@++++++++++++++++++++++++++++++++++++++++++++++++X",
"XXXXXXX@@@@@@@@oooooooo        ++++++++........XXXXXXXXXXXXXXXX########@@@@@@@@++++++++++++++++++++++++++++++++++++++++++++++++X",
"XXXXXXX@@@@@@@@oooooooo        ++++++++........XXXXXXXXXXXXXXXX########@@@@@@@@++++++++++++++++++++++++++++++++++++++++++++++++X",
"XXXXXXX................................................@@@@@@@@OOOOOOOOOOOOOOOOOOOOOOOO........................++++++++XXXXXXXXX",
"XXXXXXX................................................@@@@@@@@OOOOOOOOOOOOOOOOOOOOOOOO........................++++++++XXXXXXXXX",
"XXXXXXX................................................@@@@@@@@OOOOOOOOOOOOOOOOOOOOOOOO........................++++++++XXXXXXXXX",
"XXXXXXX................................................@@@@@@@@OOOOOOOOOOOOOOOOOOOOOOOO........................++++++++XXXXXXXXX",
"XXXXXXX................................................@@@@@@@@OOOOOOOOOOOOOOOOOOOOOOOO........................++++++++XXXXXXXXX",
"XXXXXXX................................................@@@@@@@@OOOOOOOOOOOOOOOOOOOOOOOO........................++++++++XXXXXXXXX",
"XXXXXXX................................................@@@@@@@@OOOOOOOOOOOOOOOOOOOOOOOO........................++++++++XXXXXXXXX",
"XXXXXXX................................................@@@@@@@@OOOOOOOOOOOOOOOOOOOOOOOO........................++++++++XXXXXXXXX",
"XXXXXXXXXXXXXXX++++++++........oooooooo++++++++++++++++........        ........++++++++++++++++++++++++XXXXXXXXXXXXXXXXXXXXXXXXX",
"XXXXXXXXXXXXXXX++++++++........oooooooo++++++++++++++++........        ........++++++++++++++++++++++++XXXXXXXXXXXXXXXXXXXXXXXXX",
"XXXXXXXXXXXXXXX++++++++........oooooooo++++++++++++++++........        ........++++++++++++++++++++++++XXXXXXXXXXXXXXXXXXXXXXXXX",
"XXXXXXXXXXXXXXX++++++++........oooooooo++++++++++++++++........        ........++++++++++++++++++++++++XXXXXXXXXXXXXXXXXXXXXXXXX",
"XXXXXXXXXXXXXXX++++++++........oooooooo++++++++++++++++........        ........++++++++++++++++++++++++XXXXXXXXXXXXXXXXXXXXXXXXX",
"XXXXXXXXXXXXXXX++++++++........oooooooo++++++++++++++++........        ........++++++++++++++++++++++++XXXXXXXXXXXXXXXXXXXXXXXXX",
"XXXXXXXXXXXXXXX++++++++........oooooooo++++++++++++++++........        ........++++++++++++++++++++++++XXXXXXXXXXXXXXXXXXXXXXXXX",
"XXXXXXXXXXXXXXX++++++++........oooooooo++++++++++++++++........        ........++++++++++++++++++++++++XXXXXXXXXXXXXXXXXXXXXXXXX",
"       XXXXXXXXXXXXXXXXXXXXXXXX........XXXXXXXXXXXXXXXXXXXXXXXX++++++++++++++++XXXXXXXX@@@@@@@@OOOOOOOO++++++++++++++++         ",
"       XXXXXXXXXXXXXXXXXXXXXXXX........XXXXXXXXXXXXXXXXXXXXXXXX++++++++++++++++XXXXXXXX@@@@@@@@OOOOOOOO++++++++++++++++         ",
"       XXXXXXXXXXXXXXXXXXXXXXXX........XXXXXXXXXXXXXXXXXXXXXXXX++++++++++++++++XXXXXXXX@@@@@@@@OOOOOOOO++++++++++++++++         ",
"       XXXXXXXXXXXXXXXXXXXXXXXX........XXXXXXXXXXXXXXXXXXXXXXXX++++++++++++++++XXXXXXXX@@@@@@@@OOOOOOOO++++++++++++++++         ",
"       XXXXXXXXXXXXXXXXXXXXXXXX........XXXXXXXXXXXXXXXXXXXXXXXX++++++++++++++++XXXXXXXX@@@@@@@@OOOOOOOO++++++++++++++++         ",
"       XXXXXXXXXXXXXXXXXXXXXXXX........XXXXXXXXXXXXXXXXXXXXXXXX++++++++++++++++XXXXXXXX@@@@@@@@OOOOOOOO++++++++++++++++         ",
"       XXXXXXXXXXXXXXXXXXXXXXXX........XXXXXXXXXXXXXXXXXXXXXXXX++++++++++++++++XXXXXXXX@@@@@@@@OOOOOOOO++++++++++++++++         ",
"       XXXXXXXXXXXXXXXXXXXXXXXX........XXXXXXXXXXXXXXXXXXXXXXXX++++++++++++++++XXXXXXXX@@@@@@@@OOOOOOOO++++++++++++++++         ",
"XXXXXXX........................................................@@@@@@@@########@@@@@@@@ooooooooooooooooOOOOOOOO........XXXXXXXXX",
"XXXXXXX........................................................@@@@@@@@########@@@@@@@@ooooooooooooooooOOOOOOOO........XXXXXXXXX",
"XXXXXXX........................................................@@@@@@@@########@@@@@@@@ooooooooooooooooOOOOOOOO........XXXXXXXXX",
"XXXXXXX........................................................@@@@@@@@########@@@@@@@@ooooooooooooooooOOOOOOOO........XXXXXXXXX",
"XXXXXXX........................................................@@@@@@@@########@@@@@@@@ooooooooooooooooOOOOOOOO........XXXXXXXXX",
"XXXXXXX........................................................@@@@@@@@########@@@@@@@@ooooooooooooooooOOOOOOOO........XXXXXXXXX",
"XXXXXXX........................................................@@@@@@@@########@@@@@@@@ooooooooooooooooOOOOOOOO........XXXXXXXXX",
"XXXXXXX........................................................@@@@@@@@########@@@@@@@@ooooooooooooooooOOOOOOOO........XXXXXXXXX",
"XXXXXXX++++++++........@@@@@@@@OOOOOOOOXXXXXXXXXXXXXXXX................OOOOOOOOOOOOOOOO........XXXXXXXXXXXXXXXX++++++++++++++++X",
"XXXXXXX++++++++........@@@@@@@@OOOOOOOOXXXXXXXXXXXXXXXX................OOOOOOOOOOOOOOOO........XXXXXXXXXXXXXXXX++++++++++++++++X",
"XXXXXXX++++++++........@@@@@@@@OOOOOOOOXXXXXXXXXXXXXXXX................OOOOOOOOOOOOOOOO........XXXXXXXXXXXXXXXX++++++++++++++++X",
"XXXXXXX++++++++........@@@@@@@@OOOOOOOOXXXXXXXXXXXXXXXX................OOOOOOOOOOOOOOOO........XXXXXXXXXXXXXXXX++++++++++++++++X",
"XXXXXXX++++++++........@@@@@@@@OOOOOOOOXXXXXXXXXXXXXXXX................OOOOOOOOOOOOOOOO........XXXXXXXXXXXXXXXX++++++++++++++++X",
"XXXXXXX++++++++........@@@@@@@@OOOOOOOOXXXXXXXXXXXXXXXX................OOOOOOOOOOOOOOOO........XXXXXXXXXXXXXXXX++++++++++++++++X",
"XXXXXXX++++++++........@@@@@@@@OOOOOOOOXXXXXXXXXXXXXXXX................OOOOOOOOOOOOOOOO........XXXXXXXXXXXXXXXX++++++++++++++++X",
"XXXXXXX++++++++........@@@@@@@@OOOOOOOOXXXXXXXXXXXXXXXX................OOOOOOOOOOOOOOOO........XXXXXXXXXXXXXXXX++++++++++++++++X",
"XXXXXXXXXXXXXXXXXXXXXXX........................................XXXXXXXXXXXXXXXX++++++++++++++++XXXXXXXX................XXXXXXXXX",
"XXXXXXXXXXXXXXXXXXXXXXX........................................XXXXXXXXXXXXXXXX++++++++++++++++XXXXXXXX................XXXXXXXXX",
"XXXXXXXXXXXXXXXXXXXXXXX........................................XXXXXXXXXXXXXXXX++++++++++++++++XXXXXXXX................XXXXXXXXX",
"XXXXXXXXXXXXXXXXXXXXXXX........................................XXXXXXXXXXXXXXXX++++++++++++++++XXXXXXXX................XXXXXXXXX",
"XXXXXXXXXXXXXXXXXXXXXXX........................................XXXXXXXXXXXXXXXX++++++++++++++++XXXXXXXX................XXXXXXXXX",
"XXXXXXXXXXXXXXXXXXXXXXX........................................XXXXXXXXXXXXXXXX++++++++++++++++XXXXXXXX................XXXXXXXXX",
"XXXXXXXXXXXXXXXXXXXXXXX........................................XXXXXXXXXXXXXXXX++++++++++++++++XXXXXXXX................XXXXXXXXX",
"XXXXXXXXXXXXXXXXXXXXXXX........................................XXXXXXXXXXXXXXXX++++++++++++++++XXXXXXXX................XXXXXXXXX",
"...............................        ++++++++++++++++XXXXXXXXXXXXXXXXXXXXXXXXXXXXXXXX........................XXXXXXXXXXXXXXXX.",
"...............................        ++++++++++++++++XXXXXXXXXXXXXXXXXXXXXXXXXXXXXXXX........................XXXXXXXXXXXXXXXX.",
"...............................        ++++++++++++++++XXXXXXXXXXXXXXXXXXXXXXXXXXXXXXXX........................XXXXXXXXXXXXXXXX.",
"...............................        ++++++++++++++++XXXXXXXXXXXXXXXXXXXXXXXXXXXXXXXX........................XXXXXXXXXXXXXXXX.",
"...............................        ++++++++++++++++XXXXXXXXXXXXXXXXXXXXXXXXXXXXXXXX........................XXXXXXXXXXXXXXXX.",
"...............................        ++++++++++++++++XXXXXXXXXXXXXXXXXXXXXXXXXXXXXXXX........................XXXXXXXXXXXXXXXX.",
"...............................        ++++++++++++++++XXXXXXXXXXXXXXXXXXXXXXXXXXXXXXXX........................XXXXXXXXXXXXXXXX.",
"...............................        ++++++++++++++++XXXXXXXXXXXXXXXXXXXXXXXXXXXXXXXX........................XXXXXXXXXXXXXXXX."
};
